<svg width="346" height="61" viewBox="0 0 346 61" fill="none" xmlns="http://www.w3.org/2000/svg">
<path d="M3.5919 16.8671C1.62615 15.7435 0.883873 13.2285 1.93397 11.2495C2.98407 9.27061 5.42889 8.57718 7.39464 9.70072L18.178 15.8641C20.1437 16.9876 20.886 19.5027 19.8359 21.4816C18.7858 23.4606 16.341 24.154 14.3752 23.0305L3.5919 16.8671Z" fill="#F7841F"/>
<path d="M39.6736 46.1074C37.7077 44.9838 36.9656 42.4688 38.0157 40.4897C39.0657 38.511 41.5104 37.8174 43.4763 38.941L54.2595 45.1044C56.2254 46.2277 56.9676 48.743 55.9175 50.7218C54.8674 52.7008 52.4227 53.3941 50.4568 52.2708L39.6736 46.1074Z" fill="#2E9B4A"/>
<path d="M48.5015 6.68187C48.5015 4.54792 50.2661 2.81798 52.4429 2.81798C54.6197 2.81798 56.3843 4.54792 56.3843 6.68187V48.9507C56.3843 51.0846 54.6197 52.8145 52.4429 52.8145C50.2661 52.8145 48.5015 51.0846 48.5015 48.9507V6.68187Z" fill="#54BA5C"/>
<path d="M22.6655 31.7091C20.9705 32.9187 18.6707 32.5025 17.5285 30.7788C16.3863 29.0553 16.8344 26.6773 18.5293 25.4675L49.7387 3.19056C51.4335 1.98076 53.7333 2.39723 54.8754 4.12079C56.0178 5.84435 55.5695 8.2223 53.8746 9.4321L22.6655 31.7091Z" fill="#2FA993"/>
<path d="M8.41055 55.6537C8.38693 57.6268 6.74297 59.2101 4.73015 59.1984C2.70814 59.1865 1.07765 57.5703 1.08837 55.5881L1.31763 13.173C1.32956 10.9648 3.1586 9.18193 5.41112 9.18274V9.18425H5.56573C7.43734 9.18422 8.94905 10.6837 8.92707 12.5184L8.41055 55.6537Z" fill="#F9961F"/>
<path d="M7.17428 58.5501C5.46796 59.7457 3.17031 59.3099 2.04235 57.5762C0.914392 55.8425 1.38325 53.4676 3.08958 52.272L34.8981 29.9797C36.6044 28.7838 38.9023 29.2198 40.0303 30.9534C41.1582 32.6869 40.6891 35.0618 38.9827 36.2577L7.17428 58.5501Z" fill="#DD272E"/>
<path d="M25.362 28.8768C25.362 30.2404 23.9022 30.8248 21.5665 32.21C19.2308 33.5951 16.8951 30.9352 16.8951 28.8768C16.8951 26.8185 18.3569 24.9377 20.3402 24.9377C22.3236 24.9377 25.362 27.5133 25.362 28.8768Z" fill="#1E9582"/>
<path d="M81.32 19.28C80.1733 19.28 79.0667 19.14 78 18.86C76.9467 18.5667 76.0867 18.1933 75.42 17.74L76.72 14.82C77.3467 15.22 78.0667 15.5533 78.88 15.82C79.7067 16.0733 80.5267 16.2 81.34 16.2C81.8867 16.2 82.3267 16.1533 82.66 16.06C82.9933 15.9533 83.2333 15.82 83.38 15.66C83.54 15.4867 83.62 15.2867 83.62 15.06C83.62 14.74 83.4733 14.4867 83.18 14.3C82.8867 14.1133 82.5067 13.96 82.04 13.84C81.5733 13.72 81.0533 13.6 80.48 13.48C79.92 13.36 79.3533 13.2067 78.78 13.02C78.22 12.8333 77.7067 12.5933 77.24 12.3C76.7733 11.9933 76.3933 11.6 76.1 11.12C75.8067 10.6267 75.66 10.0067 75.66 9.26C75.66 8.42 75.8867 7.66 76.34 6.98C76.8067 6.3 77.5 5.75333 78.42 5.34C79.34 4.92667 80.4867 4.72 81.86 4.72C82.78 4.72 83.68 4.82667 84.56 5.04C85.4533 5.24 86.2467 5.54 86.94 5.94L85.72 8.88C85.0533 8.52 84.3933 8.25333 83.74 8.08C83.0867 7.89333 82.4533 7.8 81.84 7.8C81.2933 7.8 80.8533 7.86 80.52 7.98C80.1867 8.08667 79.9467 8.23333 79.8 8.42C79.6533 8.60667 79.58 8.82 79.58 9.06C79.58 9.36667 79.72 9.61333 80 9.8C80.2933 9.97333 80.6733 10.12 81.14 10.24C81.62 10.3467 82.14 10.46 82.7 10.58C83.2733 10.7 83.84 10.8533 84.4 11.04C84.9733 11.2133 85.4933 11.4533 85.96 11.76C86.4267 12.0533 86.8 12.4467 87.08 12.94C87.3733 13.42 87.52 14.0267 87.52 14.76C87.52 15.5733 87.2867 16.3267 86.82 17.02C86.3667 17.7 85.68 18.2467 84.76 18.66C83.8533 19.0733 82.7067 19.28 81.32 19.28ZM89.3492 19V5H93.3092V19H89.3492ZM96.1266 19V5H99.3866L107.107 14.32H105.567V5H109.447V19H106.187L98.4666 9.68H100.007V19H96.1266ZM115.88 10.42H122.38V13.38H115.88V10.42ZM116.16 15.94H123.48V19H112.24V5H123.22V8.06H116.16V15.94ZM125.677 19V5H132.077C133.357 5 134.457 5.20667 135.377 5.62C136.311 6.03333 137.031 6.63333 137.537 7.42C138.044 8.19333 138.297 9.11333 138.297 10.18C138.297 11.2333 138.044 12.1467 137.537 12.92C137.031 13.68 136.311 14.2667 135.377 14.68C134.457 15.08 133.357 15.28 132.077 15.28H127.877L129.637 13.62V19H125.677ZM134.337 19L130.857 13.9H135.077L138.577 19H134.337ZM129.637 14.04L127.877 12.22H131.837C132.664 12.22 133.277 12.04 133.677 11.68C134.091 11.32 134.297 10.82 134.297 10.18C134.297 9.52667 134.091 9.02 133.677 8.66C133.277 8.3 132.664 8.12 131.837 8.12H127.877L129.637 6.3V14.04ZM140.482 19V5H144.442V19H140.482ZM154.319 19.28C153.199 19.28 152.166 19.1 151.219 18.74C150.273 18.38 149.446 17.8733 148.739 17.22C148.046 16.5533 147.506 15.78 147.119 14.9C146.733 14.02 146.539 13.0533 146.539 12C146.539 10.9467 146.733 9.98 147.119 9.1C147.506 8.22 148.046 7.45333 148.739 6.8C149.446 6.13333 150.273 5.62 151.219 5.26C152.166 4.9 153.199 4.72 154.319 4.72C155.453 4.72 156.486 4.9 157.419 5.26C158.366 5.62 159.186 6.13333 159.879 6.8C160.573 7.45333 161.113 8.22 161.499 9.1C161.899 9.98 162.099 10.9467 162.099 12C162.099 13.0533 161.899 14.0267 161.499 14.92C161.113 15.8 160.573 16.5667 159.879 17.22C159.186 17.8733 158.366 18.38 157.419 18.74C156.486 19.1 155.453 19.28 154.319 19.28ZM154.319 16C154.853 16 155.346 15.9067 155.799 15.72C156.266 15.5333 156.666 15.2667 156.999 14.92C157.346 14.56 157.613 14.1333 157.799 13.64C157.999 13.1467 158.099 12.6 158.099 12C158.099 11.3867 157.999 10.84 157.799 10.36C157.613 9.86667 157.346 9.44667 156.999 9.1C156.666 8.74 156.266 8.46667 155.799 8.28C155.346 8.09333 154.853 8 154.319 8C153.786 8 153.286 8.09333 152.819 8.28C152.366 8.46667 151.966 8.74 151.619 9.1C151.286 9.44667 151.019 9.86667 150.819 10.36C150.633 10.84 150.539 11.3867 150.539 12C150.539 12.6 150.633 13.1467 150.819 13.64C151.019 14.1333 151.286 14.56 151.619 14.92C151.966 15.2667 152.366 15.5333 152.819 15.72C153.286 15.9067 153.786 16 154.319 16ZM170.633 19.28C168.567 19.28 166.953 18.7133 165.793 17.58C164.633 16.4467 164.053 14.84 164.053 12.76V5H168.013V12.64C168.013 13.84 168.247 14.7 168.713 15.22C169.193 15.74 169.847 16 170.673 16C171.5 16 172.147 15.74 172.613 15.22C173.08 14.7 173.313 13.84 173.313 12.64V5H177.213V12.76C177.213 14.84 176.633 16.4467 175.473 17.58C174.313 18.7133 172.7 19.28 170.633 19.28ZM184.816 19.28C183.669 19.28 182.563 19.14 181.496 18.86C180.443 18.5667 179.583 18.1933 178.916 17.74L180.216 14.82C180.843 15.22 181.563 15.5533 182.376 15.82C183.203 16.0733 184.023 16.2 184.836 16.2C185.383 16.2 185.823 16.1533 186.156 16.06C186.489 15.9533 186.729 15.82 186.876 15.66C187.036 15.4867 187.116 15.2867 187.116 15.06C187.116 14.74 186.969 14.4867 186.676 14.3C186.383 14.1133 186.003 13.96 185.536 13.84C185.069 13.72 184.549 13.6 183.976 13.48C183.416 13.36 182.849 13.2067 182.276 13.02C181.716 12.8333 181.203 12.5933 180.736 12.3C180.269 11.9933 179.889 11.6 179.596 11.12C179.303 10.6267 179.156 10.0067 179.156 9.26C179.156 8.42 179.383 7.66 179.836 6.98C180.303 6.3 180.996 5.75333 181.916 5.34C182.836 4.92667 183.983 4.72 185.356 4.72C186.276 4.72 187.176 4.82667 188.056 5.04C188.949 5.24 189.743 5.54 190.436 5.94L189.216 8.88C188.549 8.52 187.889 8.25333 187.236 8.08C186.583 7.89333 185.949 7.8 185.336 7.8C184.789 7.8 184.349 7.86 184.016 7.98C183.683 8.08667 183.443 8.23333 183.296 8.42C183.149 8.60667 183.076 8.82 183.076 9.06C183.076 9.36667 183.216 9.61333 183.496 9.8C183.789 9.97333 184.169 10.12 184.636 10.24C185.116 10.3467 185.636 10.46 186.196 10.58C186.769 10.7 187.336 10.8533 187.896 11.04C188.469 11.2133 188.989 11.4533 189.456 11.76C189.923 12.0533 190.296 12.4467 190.576 12.94C190.869 13.42 191.016 14.0267 191.016 14.76C191.016 15.5733 190.783 16.3267 190.316 17.02C189.863 17.7 189.176 18.2467 188.256 18.66C187.349 19.0733 186.203 19.28 184.816 19.28Z" fill="#1E3A5F"/>
<path d="M76.26 39V30.6H79.8C80.696 30.6 81.484 30.776 82.164 31.128C82.852 31.48 83.384 31.972 83.76 32.604C84.144 33.236 84.336 33.968 84.336 34.8C84.336 35.632 84.144 36.364 83.76 36.996C83.384 37.628 82.852 38.12 82.164 38.472C81.484 38.824 80.696 39 79.8 39H76.26ZM77.46 37.956H79.728C80.424 37.956 81.024 37.824 81.528 37.56C82.04 37.296 82.436 36.928 82.716 36.456C82.996 35.976 83.136 35.424 83.136 34.8C83.136 34.168 82.996 33.616 82.716 33.144C82.436 32.672 82.04 32.304 81.528 32.04C81.024 31.776 80.424 31.644 79.728 31.644H77.46V37.956ZM88.8381 39.072C88.1581 39.072 87.5581 38.932 87.0381 38.652C86.5261 38.372 86.1261 37.988 85.8381 37.5C85.5581 37.012 85.4181 36.452 85.4181 35.82C85.4181 35.188 85.5541 34.628 85.8261 34.14C86.1061 33.652 86.4861 33.272 86.9661 33C87.4541 32.72 88.0021 32.58 88.6101 32.58C89.2261 32.58 89.7701 32.716 90.2421 32.988C90.7141 33.26 91.0821 33.644 91.3461 34.14C91.6181 34.628 91.7541 35.2 91.7541 35.856C91.7541 35.904 91.7501 35.96 91.7421 36.024C91.7421 36.088 91.7381 36.148 91.7301 36.204H86.3181V35.376H91.1301L90.6621 35.664C90.6701 35.256 90.5861 34.892 90.4101 34.572C90.2341 34.252 89.9901 34.004 89.6781 33.828C89.3741 33.644 89.0181 33.552 88.6101 33.552C88.2101 33.552 87.8541 33.644 87.5421 33.828C87.2301 34.004 86.9861 34.256 86.8101 34.584C86.6341 34.904 86.5461 35.272 86.5461 35.688V35.88C86.5461 36.304 86.6421 36.684 86.8341 37.02C87.0341 37.348 87.3101 37.604 87.6621 37.788C88.0141 37.972 88.4181 38.064 88.8741 38.064C89.2501 38.064 89.5901 38 89.8941 37.872C90.2061 37.744 90.4781 37.552 90.7101 37.296L91.3461 38.04C91.0581 38.376 90.6981 38.632 90.2661 38.808C89.8421 38.984 89.3661 39.072 88.8381 39.072ZM95.1777 39.072C94.6497 39.072 94.1457 39 93.6657 38.856C93.1937 38.712 92.8217 38.536 92.5497 38.328L93.0297 37.416C93.3017 37.6 93.6377 37.756 94.0377 37.884C94.4377 38.012 94.8457 38.076 95.2617 38.076C95.7977 38.076 96.1817 38 96.4137 37.848C96.6537 37.696 96.7737 37.484 96.7737 37.212C96.7737 37.012 96.7017 36.856 96.5577 36.744C96.4137 36.632 96.2217 36.548 95.9817 36.492C95.7497 36.436 95.4897 36.388 95.2017 36.348C94.9137 36.3 94.6257 36.244 94.3377 36.18C94.0497 36.108 93.7857 36.012 93.5457 35.892C93.3057 35.764 93.1137 35.592 92.9697 35.376C92.8257 35.152 92.7537 34.856 92.7537 34.488C92.7537 34.104 92.8617 33.768 93.0777 33.48C93.2937 33.192 93.5977 32.972 93.9897 32.82C94.3897 32.66 94.8617 32.58 95.4057 32.58C95.8217 32.58 96.2417 32.632 96.6657 32.736C97.0977 32.832 97.4497 32.972 97.7217 33.156L97.2297 34.068C96.9417 33.876 96.6417 33.744 96.3297 33.672C96.0177 33.6 95.7057 33.564 95.3937 33.564C94.8897 33.564 94.5137 33.648 94.2657 33.816C94.0177 33.976 93.8937 34.184 93.8937 34.44C93.8937 34.656 93.9657 34.824 94.1097 34.944C94.2617 35.056 94.4537 35.144 94.6857 35.208C94.9257 35.272 95.1897 35.328 95.4777 35.376C95.7657 35.416 96.0537 35.472 96.3417 35.544C96.6297 35.608 96.8897 35.7 97.1217 35.82C97.3617 35.94 97.5537 36.108 97.6977 36.324C97.8497 36.54 97.9257 36.828 97.9257 37.188C97.9257 37.572 97.8137 37.904 97.5897 38.184C97.3657 38.464 97.0497 38.684 96.6417 38.844C96.2337 38.996 95.7457 39.072 95.1777 39.072ZM102.197 39.072C101.517 39.072 100.917 38.932 100.397 38.652C99.8854 38.372 99.4854 37.988 99.1974 37.5C98.9174 37.012 98.7774 36.452 98.7774 35.82C98.7774 35.188 98.9134 34.628 99.1854 34.14C99.4654 33.652 99.8454 33.272 100.325 33C100.813 32.72 101.361 32.58 101.969 32.58C102.585 32.58 103.129 32.716 103.601 32.988C104.073 33.26 104.441 33.644 104.705 34.14C104.977 34.628 105.113 35.2 105.113 35.856C105.113 35.904 105.109 35.96 105.101 36.024C105.101 36.088 105.097 36.148 105.089 36.204H99.6774V35.376H104.489L104.021 35.664C104.029 35.256 103.945 34.892 103.769 34.572C103.593 34.252 103.349 34.004 103.037 33.828C102.733 33.644 102.377 33.552 101.969 33.552C101.569 33.552 101.213 33.644 100.901 33.828C100.589 34.004 100.345 34.256 100.169 34.584C99.9934 34.904 99.9054 35.272 99.9054 35.688V35.88C99.9054 36.304 100.001 36.684 100.193 37.02C100.393 37.348 100.669 37.604 101.021 37.788C101.373 37.972 101.777 38.064 102.233 38.064C102.609 38.064 102.949 38 103.253 37.872C103.565 37.744 103.837 37.552 104.069 37.296L104.705 38.04C104.417 38.376 104.057 38.632 103.625 38.808C103.201 38.984 102.725 39.072 102.197 39.072ZM110.109 32.58C110.629 32.58 111.085 32.68 111.477 32.88C111.877 33.08 112.189 33.384 112.413 33.792C112.637 34.2 112.749 34.716 112.749 35.34V39H111.597V35.472C111.597 34.856 111.445 34.392 111.141 34.08C110.845 33.768 110.425 33.612 109.881 33.612C109.473 33.612 109.117 33.692 108.813 33.852C108.509 34.012 108.273 34.248 108.105 34.56C107.945 34.872 107.865 35.26 107.865 35.724V39H106.713V32.64H107.817V34.356L107.637 33.9C107.845 33.484 108.165 33.16 108.597 32.928C109.029 32.696 109.533 32.58 110.109 32.58ZM116.432 39L113.648 32.64H114.848L117.32 38.4H116.744L119.264 32.64H120.392L117.608 39H116.432ZM124.015 39.072C123.375 39.072 122.807 38.932 122.311 38.652C121.815 38.372 121.423 37.988 121.135 37.5C120.847 37.004 120.703 36.444 120.703 35.82C120.703 35.188 120.847 34.628 121.135 34.14C121.423 33.652 121.815 33.272 122.311 33C122.807 32.72 123.375 32.58 124.015 32.58C124.647 32.58 125.211 32.72 125.707 33C126.211 33.272 126.603 33.652 126.883 34.14C127.171 34.62 127.315 35.18 127.315 35.82C127.315 36.452 127.171 37.012 126.883 37.5C126.603 37.988 126.211 38.372 125.707 38.652C125.211 38.932 124.647 39.072 124.015 39.072ZM124.015 38.064C124.423 38.064 124.787 37.972 125.107 37.788C125.435 37.604 125.691 37.344 125.875 37.008C126.059 36.664 126.151 36.268 126.151 35.82C126.151 35.364 126.059 34.972 125.875 34.644C125.691 34.308 125.435 34.048 125.107 33.864C124.787 33.68 124.423 33.588 124.015 33.588C123.607 33.588 123.243 33.68 122.923 33.864C122.603 34.048 122.347 34.308 122.155 34.644C121.963 34.972 121.867 35.364 121.867 35.82C121.867 36.268 121.963 36.664 122.155 37.008C122.347 37.344 122.603 37.604 122.923 37.788C123.243 37.972 123.607 38.064 124.015 38.064ZM128.908 39V30.096H130.06V39H128.908ZM133.928 39L131.144 32.64H132.344L134.816 38.4H134.24L136.76 32.64H137.888L135.104 39H133.928ZM138.963 39V32.64H140.115V39H138.963ZM139.539 31.416C139.315 31.416 139.127 31.344 138.975 31.2C138.831 31.056 138.759 30.88 138.759 30.672C138.759 30.456 138.831 30.276 138.975 30.132C139.127 29.988 139.315 29.916 139.539 29.916C139.763 29.916 139.947 29.988 140.091 30.132C140.243 30.268 140.319 30.44 140.319 30.648C140.319 30.864 140.247 31.048 140.103 31.2C139.959 31.344 139.771 31.416 139.539 31.416ZM150.271 32.58C150.783 32.58 151.235 32.68 151.627 32.88C152.019 33.08 152.323 33.384 152.539 33.792C152.763 34.2 152.875 34.716 152.875 35.34V39H151.723V35.472C151.723 34.856 151.579 34.392 151.291 34.08C151.003 33.768 150.599 33.612 150.079 33.612C149.695 33.612 149.359 33.692 149.071 33.852C148.783 34.012 148.559 34.248 148.399 34.56C148.247 34.872 148.171 35.26 148.171 35.724V39H147.019V35.472C147.019 34.856 146.875 34.392 146.587 34.08C146.307 33.768 145.903 33.612 145.375 33.612C144.999 33.612 144.667 33.692 144.379 33.852C144.091 34.012 143.867 34.248 143.707 34.56C143.547 34.872 143.467 35.26 143.467 35.724V39H142.315V32.64H143.419V34.332L143.239 33.9C143.439 33.484 143.747 33.16 144.163 32.928C144.579 32.696 145.063 32.58 145.615 32.58C146.223 32.58 146.747 32.732 147.187 33.036C147.627 33.332 147.915 33.784 148.051 34.392L147.583 34.2C147.775 33.712 148.111 33.32 148.591 33.024C149.071 32.728 149.631 32.58 150.271 32.58ZM157.826 39.072C157.146 39.072 156.546 38.932 156.026 38.652C155.514 38.372 155.114 37.988 154.826 37.5C154.546 37.012 154.406 36.452 154.406 35.82C154.406 35.188 154.542 34.628 154.814 34.14C155.094 33.652 155.474 33.272 155.954 33C156.442 32.72 156.99 32.58 157.598 32.58C158.214 32.58 158.758 32.716 159.23 32.988C159.702 33.26 160.07 33.644 160.334 34.14C160.606 34.628 160.742 35.2 160.742 35.856C160.742 35.904 160.738 35.96 160.73 36.024C160.73 36.088 160.726 36.148 160.718 36.204H155.306V35.376H160.118L159.65 35.664C159.658 35.256 159.574 34.892 159.398 34.572C159.222 34.252 158.978 34.004 158.666 33.828C158.362 33.644 158.006 33.552 157.598 33.552C157.198 33.552 156.842 33.644 156.53 33.828C156.218 34.004 155.974 34.256 155.798 34.584C155.622 34.904 155.534 35.272 155.534 35.688V35.88C155.534 36.304 155.63 36.684 155.822 37.02C156.022 37.348 156.298 37.604 156.65 37.788C157.002 37.972 157.406 38.064 157.862 38.064C158.238 38.064 158.578 38 158.882 37.872C159.194 37.744 159.466 37.552 159.698 37.296L160.334 38.04C160.046 38.376 159.686 38.632 159.254 38.808C158.83 38.984 158.354 39.072 157.826 39.072ZM165.738 32.58C166.258 32.58 166.714 32.68 167.106 32.88C167.506 33.08 167.818 33.384 168.042 33.792C168.266 34.2 168.378 34.716 168.378 35.34V39H167.226V35.472C167.226 34.856 167.074 34.392 166.77 34.08C166.474 33.768 166.054 33.612 165.51 33.612C165.102 33.612 164.746 33.692 164.442 33.852C164.138 34.012 163.902 34.248 163.734 34.56C163.574 34.872 163.494 35.26 163.494 35.724V39H162.342V32.64H163.446V34.356L163.266 33.9C163.474 33.484 163.794 33.16 164.226 32.928C164.658 32.696 165.162 32.58 165.738 32.58ZM172.694 39.072C172.054 39.072 171.558 38.9 171.206 38.556C170.854 38.212 170.678 37.72 170.678 37.08V31.248H171.83V37.032C171.83 37.376 171.914 37.64 172.082 37.824C172.258 38.008 172.506 38.1 172.826 38.1C173.186 38.1 173.486 38 173.726 37.8L174.086 38.628C173.91 38.78 173.698 38.892 173.45 38.964C173.21 39.036 172.958 39.072 172.694 39.072ZM169.598 33.588V32.64H173.654V33.588H169.598ZM177.992 39.072C177.352 39.072 176.784 38.932 176.288 38.652C175.792 38.372 175.4 37.988 175.112 37.5C174.824 37.004 174.68 36.444 174.68 35.82C174.68 35.188 174.824 34.628 175.112 34.14C175.4 33.652 175.792 33.272 176.288 33C176.784 32.72 177.352 32.58 177.992 32.58C178.624 32.58 179.188 32.72 179.684 33C180.188 33.272 180.58 33.652 180.86 34.14C181.148 34.62 181.292 35.18 181.292 35.82C181.292 36.452 181.148 37.012 180.86 37.5C180.58 37.988 180.188 38.372 179.684 38.652C179.188 38.932 178.624 39.072 177.992 39.072ZM177.992 38.064C178.4 38.064 178.764 37.972 179.084 37.788C179.412 37.604 179.668 37.344 179.852 37.008C180.036 36.664 180.128 36.268 180.128 35.82C180.128 35.364 180.036 34.972 179.852 34.644C179.668 34.308 179.412 34.048 179.084 33.864C178.764 33.68 178.4 33.588 177.992 33.588C177.584 33.588 177.22 33.68 176.9 33.864C176.58 34.048 176.324 34.308 176.132 34.644C175.94 34.972 175.844 35.364 175.844 35.82C175.844 36.268 175.94 36.664 176.132 37.008C176.324 37.344 176.58 37.604 176.9 37.788C177.22 37.972 177.584 38.064 177.992 38.064ZM188.208 39L185.4 30.6H186.636L189.216 38.352H188.592L191.268 30.6H192.372L194.988 38.352H194.388L197.004 30.6H198.144L195.336 39H194.076L191.628 31.812H191.952L189.492 39H188.208ZM201.795 39.072C201.115 39.072 200.515 38.932 199.995 38.652C199.483 38.372 199.083 37.988 198.795 37.5C198.515 37.012 198.375 36.452 198.375 35.82C198.375 35.188 198.511 34.628 198.783 34.14C199.063 33.652 199.443 33.272 199.923 33C200.411 32.72 200.959 32.58 201.567 32.58C202.183 32.58 202.727 32.716 203.199 32.988C203.671 33.26 204.039 33.644 204.303 34.14C204.575 34.628 204.711 35.2 204.711 35.856C204.711 35.904 204.707 35.96 204.699 36.024C204.699 36.088 204.695 36.148 204.687 36.204H199.275V35.376H204.087L203.619 35.664C203.627 35.256 203.543 34.892 203.367 34.572C203.191 34.252 202.947 34.004 202.635 33.828C202.331 33.644 201.975 33.552 201.567 33.552C201.167 33.552 200.811 33.644 200.499 33.828C200.187 34.004 199.943 34.256 199.767 34.584C199.591 34.904 199.503 35.272 199.503 35.688V35.88C199.503 36.304 199.599 36.684 199.791 37.02C199.991 37.348 200.267 37.604 200.619 37.788C200.971 37.972 201.375 38.064 201.831 38.064C202.207 38.064 202.547 38 202.851 37.872C203.163 37.744 203.435 37.552 203.667 37.296L204.303 38.04C204.015 38.376 203.655 38.632 203.223 38.808C202.799 38.984 202.323 39.072 201.795 39.072ZM209.683 39.072C209.139 39.072 208.647 38.952 208.207 38.712C207.775 38.464 207.431 38.1 207.175 37.62C206.927 37.14 206.803 36.54 206.803 35.82C206.803 35.1 206.931 34.5 207.187 34.02C207.451 33.54 207.799 33.18 208.231 32.94C208.671 32.7 209.155 32.58 209.683 32.58C210.307 32.58 210.859 32.716 211.339 32.988C211.819 33.26 212.199 33.64 212.479 34.128C212.759 34.608 212.899 35.172 212.899 35.82C212.899 36.468 212.759 37.036 212.479 37.524C212.199 38.012 211.819 38.392 211.339 38.664C210.859 38.936 210.307 39.072 209.683 39.072ZM206.311 39V30.096H207.463V34.332L207.343 35.808L207.415 37.284V39H206.311ZM209.587 38.064C209.995 38.064 210.359 37.972 210.679 37.788C211.007 37.604 211.263 37.344 211.447 37.008C211.639 36.664 211.735 36.268 211.735 35.82C211.735 35.364 211.639 34.972 211.447 34.644C211.263 34.308 211.007 34.048 210.679 33.864C210.359 33.68 209.995 33.588 209.587 33.588C209.187 33.588 208.823 33.68 208.495 33.864C208.175 34.048 207.919 34.308 207.727 34.644C207.543 34.972 207.451 35.364 207.451 35.82C207.451 36.268 207.543 36.664 207.727 37.008C207.919 37.344 208.175 37.604 208.495 37.788C208.823 37.972 209.187 38.064 209.587 38.064ZM220.545 39.072C219.865 39.072 219.265 38.932 218.745 38.652C218.233 38.372 217.833 37.988 217.545 37.5C217.265 37.012 217.125 36.452 217.125 35.82C217.125 35.188 217.261 34.628 217.533 34.14C217.813 33.652 218.193 33.272 218.673 33C219.161 32.72 219.709 32.58 220.317 32.58C220.933 32.58 221.477 32.716 221.949 32.988C222.421 33.26 222.789 33.644 223.053 34.14C223.325 34.628 223.461 35.2 223.461 35.856C223.461 35.904 223.457 35.96 223.449 36.024C223.449 36.088 223.445 36.148 223.437 36.204H218.025V35.376H222.837L222.369 35.664C222.377 35.256 222.293 34.892 222.117 34.572C221.941 34.252 221.697 34.004 221.385 33.828C221.081 33.644 220.725 33.552 220.317 33.552C219.917 33.552 219.561 33.644 219.249 33.828C218.937 34.004 218.693 34.256 218.517 34.584C218.341 34.904 218.253 35.272 218.253 35.688V35.88C218.253 36.304 218.349 36.684 218.541 37.02C218.741 37.348 219.017 37.604 219.369 37.788C219.721 37.972 220.125 38.064 220.581 38.064C220.957 38.064 221.297 38 221.601 37.872C221.913 37.744 222.185 37.552 222.417 37.296L223.053 38.04C222.765 38.376 222.405 38.632 221.973 38.808C221.549 38.984 221.073 39.072 220.545 39.072ZM228.451 39V30.6H231.991C232.887 30.6 233.675 30.776 234.355 31.128C235.043 31.48 235.575 31.972 235.951 32.604C236.335 33.236 236.527 33.968 236.527 34.8C236.527 35.632 236.335 36.364 235.951 36.996C235.575 37.628 235.043 38.12 234.355 38.472C233.675 38.824 232.887 39 231.991 39H228.451ZM229.651 37.956H231.919C232.615 37.956 233.215 37.824 233.719 37.56C234.231 37.296 234.627 36.928 234.907 36.456C235.187 35.976 235.327 35.424 235.327 34.8C235.327 34.168 235.187 33.616 234.907 33.144C234.627 32.672 234.231 32.304 233.719 32.04C233.215 31.776 232.615 31.644 231.919 31.644H229.651V37.956ZM241.029 39.072C240.349 39.072 239.749 38.932 239.229 38.652C238.717 38.372 238.317 37.988 238.029 37.5C237.749 37.012 237.609 36.452 237.609 35.82C237.609 35.188 237.745 34.628 238.017 34.14C238.297 33.652 238.677 33.272 239.157 33C239.645 32.72 240.193 32.58 240.801 32.58C241.417 32.58 241.961 32.716 242.433 32.988C242.905 33.26 243.273 33.644 243.537 34.14C243.809 34.628 243.945 35.2 243.945 35.856C243.945 35.904 243.941 35.96 243.933 36.024C243.933 36.088 243.929 36.148 243.921 36.204H238.509V35.376H243.321L242.853 35.664C242.861 35.256 242.777 34.892 242.601 34.572C242.425 34.252 242.181 34.004 241.869 33.828C241.565 33.644 241.209 33.552 240.801 33.552C240.401 33.552 240.045 33.644 239.733 33.828C239.421 34.004 239.177 34.256 239.001 34.584C238.825 34.904 238.737 35.272 238.737 35.688V35.88C238.737 36.304 238.833 36.684 239.025 37.02C239.225 37.348 239.501 37.604 239.853 37.788C240.205 37.972 240.609 38.064 241.065 38.064C241.441 38.064 241.781 38 242.085 37.872C242.397 37.744 242.669 37.552 242.901 37.296L243.537 38.04C243.249 38.376 242.889 38.632 242.457 38.808C242.033 38.984 241.557 39.072 241.029 39.072ZM247.369 39.072C246.841 39.072 246.337 39 245.857 38.856C245.385 38.712 245.013 38.536 244.741 38.328L245.221 37.416C245.493 37.6 245.829 37.756 246.229 37.884C246.629 38.012 247.037 38.076 247.453 38.076C247.989 38.076 248.373 38 248.605 37.848C248.845 37.696 248.965 37.484 248.965 37.212C248.965 37.012 248.893 36.856 248.749 36.744C248.605 36.632 248.413 36.548 248.173 36.492C247.941 36.436 247.681 36.388 247.393 36.348C247.105 36.3 246.817 36.244 246.529 36.18C246.241 36.108 245.977 36.012 245.737 35.892C245.497 35.764 245.305 35.592 245.161 35.376C245.017 35.152 244.945 34.856 244.945 34.488C244.945 34.104 245.053 33.768 245.269 33.48C245.485 33.192 245.789 32.972 246.181 32.82C246.581 32.66 247.053 32.58 247.597 32.58C248.013 32.58 248.433 32.632 248.857 32.736C249.289 32.832 249.641 32.972 249.913 33.156L249.421 34.068C249.133 33.876 248.833 33.744 248.521 33.672C248.209 33.6 247.897 33.564 247.585 33.564C247.081 33.564 246.705 33.648 246.457 33.816C246.209 33.976 246.085 34.184 246.085 34.44C246.085 34.656 246.157 34.824 246.301 34.944C246.453 35.056 246.645 35.144 246.877 35.208C247.117 35.272 247.381 35.328 247.669 35.376C247.957 35.416 248.245 35.472 248.533 35.544C248.821 35.608 249.081 35.7 249.313 35.82C249.553 35.94 249.745 36.108 249.889 36.324C250.041 36.54 250.117 36.828 250.117 37.188C250.117 37.572 250.005 37.904 249.781 38.184C249.557 38.464 249.241 38.684 248.833 38.844C248.425 38.996 247.937 39.072 247.369 39.072ZM251.557 39V32.64H252.709V39H251.557ZM252.133 31.416C251.909 31.416 251.721 31.344 251.569 31.2C251.425 31.056 251.353 30.88 251.353 30.672C251.353 30.456 251.425 30.276 251.569 30.132C251.721 29.988 251.909 29.916 252.133 29.916C252.357 29.916 252.541 29.988 252.685 30.132C252.837 30.268 252.913 30.44 252.913 30.648C252.913 30.864 252.841 31.048 252.697 31.2C252.553 31.344 252.365 31.416 252.133 31.416ZM257.692 41.4C257.108 41.4 256.54 41.316 255.988 41.148C255.444 40.988 255 40.756 254.656 40.452L255.208 39.564C255.504 39.82 255.868 40.02 256.3 40.164C256.732 40.316 257.184 40.392 257.656 40.392C258.408 40.392 258.96 40.216 259.312 39.864C259.664 39.512 259.84 38.976 259.84 38.256V36.912L259.96 35.652L259.9 34.38V32.64H260.992V38.136C260.992 39.256 260.712 40.08 260.152 40.608C259.592 41.136 258.772 41.4 257.692 41.4ZM257.548 38.736C256.932 38.736 256.38 38.608 255.892 38.352C255.412 38.088 255.028 37.724 254.74 37.26C254.46 36.796 254.32 36.26 254.32 35.652C254.32 35.036 254.46 34.5 254.74 34.044C255.028 33.58 255.412 33.22 255.892 32.964C256.38 32.708 256.932 32.58 257.548 32.58C258.092 32.58 258.588 32.692 259.036 32.916C259.484 33.132 259.84 33.468 260.104 33.924C260.376 34.38 260.512 34.956 260.512 35.652C260.512 36.34 260.376 36.912 260.104 37.368C259.84 37.824 259.484 38.168 259.036 38.4C258.588 38.624 258.092 38.736 257.548 38.736ZM257.68 37.728C258.104 37.728 258.48 37.64 258.808 37.464C259.136 37.288 259.392 37.044 259.576 36.732C259.768 36.42 259.864 36.06 259.864 35.652C259.864 35.244 259.768 34.884 259.576 34.572C259.392 34.26 259.136 34.02 258.808 33.852C258.48 33.676 258.104 33.588 257.68 33.588C257.256 33.588 256.876 33.676 256.54 33.852C256.212 34.02 255.952 34.26 255.76 34.572C255.576 34.884 255.484 35.244 255.484 35.652C255.484 36.06 255.576 36.42 255.76 36.732C255.952 37.044 256.212 37.288 256.54 37.464C256.876 37.64 257.256 37.728 257.68 37.728ZM266.59 32.58C267.11 32.58 267.566 32.68 267.958 32.88C268.358 33.08 268.67 33.384 268.894 33.792C269.118 34.2 269.23 34.716 269.23 35.34V39H268.078V35.472C268.078 34.856 267.926 34.392 267.622 34.08C267.326 33.768 266.906 33.612 266.362 33.612C265.954 33.612 265.598 33.692 265.294 33.852C264.99 34.012 264.754 34.248 264.586 34.56C264.426 34.872 264.346 35.26 264.346 35.724V39H263.194V32.64H264.298V34.356L264.118 33.9C264.326 33.484 264.646 33.16 265.078 32.928C265.51 32.696 266.014 32.58 266.59 32.58ZM278.544 39.096C277.896 39.096 277.3 38.992 276.756 38.784C276.212 38.568 275.74 38.268 275.34 37.884C274.94 37.492 274.628 37.036 274.404 36.516C274.18 35.996 274.068 35.424 274.068 34.8C274.068 34.176 274.18 33.604 274.404 33.084C274.628 32.564 274.94 32.112 275.34 31.728C275.748 31.336 276.224 31.036 276.768 30.828C277.312 30.612 277.912 30.504 278.568 30.504C279.232 30.504 279.84 30.612 280.392 30.828C280.944 31.044 281.412 31.368 281.796 31.8L281.052 32.544C280.708 32.208 280.332 31.964 279.924 31.812C279.524 31.652 279.088 31.572 278.616 31.572C278.136 31.572 277.688 31.652 277.272 31.812C276.864 31.972 276.508 32.196 276.204 32.484C275.908 32.772 275.676 33.116 275.508 33.516C275.348 33.908 275.268 34.336 275.268 34.8C275.268 35.256 275.348 35.684 275.508 36.084C275.676 36.476 275.908 36.82 276.204 37.116C276.508 37.404 276.864 37.628 277.272 37.788C277.68 37.948 278.124 38.028 278.604 38.028C279.052 38.028 279.48 37.96 279.888 37.824C280.304 37.68 280.688 37.444 281.04 37.116L281.724 38.028C281.308 38.38 280.82 38.648 280.26 38.832C279.708 39.008 279.136 39.096 278.544 39.096ZM280.572 37.872V34.752H281.724V38.028L280.572 37.872ZM283.854 39V32.64H284.958V34.368L284.85 33.936C285.026 33.496 285.322 33.16 285.738 32.928C286.154 32.696 286.666 32.58 287.274 32.58V33.696C287.226 33.688 287.178 33.684 287.13 33.684C287.09 33.684 287.05 33.684 287.01 33.684C286.394 33.684 285.906 33.868 285.546 34.236C285.186 34.604 285.006 35.136 285.006 35.832V39H283.854ZM292.173 39V37.656L292.113 37.404V35.112C292.113 34.624 291.969 34.248 291.681 33.984C291.401 33.712 290.977 33.576 290.409 33.576C290.033 33.576 289.665 33.64 289.305 33.768C288.945 33.888 288.641 34.052 288.393 34.26L287.913 33.396C288.241 33.132 288.633 32.932 289.089 32.796C289.553 32.652 290.037 32.58 290.541 32.58C291.413 32.58 292.085 32.792 292.557 33.216C293.029 33.64 293.265 34.288 293.265 35.16V39H292.173ZM290.085 39.072C289.613 39.072 289.197 38.992 288.837 38.832C288.485 38.672 288.213 38.452 288.021 38.172C287.829 37.884 287.733 37.56 287.733 37.2C287.733 36.856 287.813 36.544 287.973 36.264C288.141 35.984 288.409 35.76 288.777 35.592C289.153 35.424 289.657 35.34 290.289 35.34H292.305V36.168H290.337C289.761 36.168 289.373 36.264 289.173 36.456C288.973 36.648 288.873 36.88 288.873 37.152C288.873 37.464 288.997 37.716 289.245 37.908C289.493 38.092 289.837 38.184 290.277 38.184C290.709 38.184 291.085 38.088 291.405 37.896C291.733 37.704 291.969 37.424 292.113 37.056L292.341 37.848C292.189 38.224 291.921 38.524 291.537 38.748C291.153 38.964 290.669 39.072 290.085 39.072ZM289.725 31.716L291.357 30.156H292.821L290.805 31.716H289.725ZM295.565 39V32.076C295.565 31.452 295.745 30.956 296.105 30.588C296.473 30.212 296.993 30.024 297.665 30.024C297.913 30.024 298.149 30.056 298.373 30.12C298.605 30.176 298.801 30.268 298.961 30.396L298.613 31.272C298.493 31.176 298.357 31.104 298.205 31.056C298.053 31 297.893 30.972 297.725 30.972C297.389 30.972 297.133 31.068 296.957 31.26C296.781 31.444 296.693 31.72 296.693 32.088V32.94L296.717 33.468V39H295.565ZM294.485 33.588V32.64H298.541V33.588H294.485ZM299.633 39V32.64H300.785V39H299.633ZM300.209 31.416C299.985 31.416 299.797 31.344 299.645 31.2C299.501 31.056 299.429 30.88 299.429 30.672C299.429 30.456 299.501 30.276 299.645 30.132C299.797 29.988 299.985 29.916 300.209 29.916C300.433 29.916 300.617 29.988 300.761 30.132C300.913 30.268 300.989 30.44 300.989 30.648C300.989 30.864 300.917 31.048 300.773 31.2C300.629 31.344 300.441 31.416 300.209 31.416ZM305.751 39.072C305.103 39.072 304.523 38.932 304.011 38.652C303.507 38.372 303.111 37.988 302.823 37.5C302.535 37.012 302.391 36.452 302.391 35.82C302.391 35.188 302.535 34.628 302.823 34.14C303.111 33.652 303.507 33.272 304.011 33C304.523 32.72 305.103 32.58 305.751 32.58C306.327 32.58 306.839 32.696 307.287 32.928C307.743 33.152 308.095 33.488 308.343 33.936L307.467 34.5C307.259 34.188 307.003 33.96 306.699 33.816C306.403 33.664 306.083 33.588 305.739 33.588C305.323 33.588 304.951 33.68 304.623 33.864C304.295 34.048 304.035 34.308 303.843 34.644C303.651 34.972 303.555 35.364 303.555 35.82C303.555 36.276 303.651 36.672 303.843 37.008C304.035 37.344 304.295 37.604 304.623 37.788C304.951 37.972 305.323 38.064 305.739 38.064C306.083 38.064 306.403 37.992 306.699 37.848C307.003 37.696 307.259 37.464 307.467 37.152L308.343 37.704C308.095 38.144 307.743 38.484 307.287 38.724C306.839 38.956 306.327 39.072 305.751 39.072ZM312.464 39.072C311.824 39.072 311.256 38.932 310.76 38.652C310.264 38.372 309.872 37.988 309.584 37.5C309.296 37.004 309.152 36.444 309.152 35.82C309.152 35.188 309.296 34.628 309.584 34.14C309.872 33.652 310.264 33.272 310.76 33C311.256 32.72 311.824 32.58 312.464 32.58C313.096 32.58 313.66 32.72 314.156 33C314.66 33.272 315.052 33.652 315.332 34.14C315.62 34.62 315.764 35.18 315.764 35.82C315.764 36.452 315.62 37.012 315.332 37.5C315.052 37.988 314.66 38.372 314.156 38.652C313.66 38.932 313.096 39.072 312.464 39.072ZM312.464 38.064C312.872 38.064 313.236 37.972 313.556 37.788C313.884 37.604 314.14 37.344 314.324 37.008C314.508 36.664 314.6 36.268 314.6 35.82C314.6 35.364 314.508 34.972 314.324 34.644C314.14 34.308 313.884 34.048 313.556 33.864C313.236 33.68 312.872 33.588 312.464 33.588C312.056 33.588 311.692 33.68 311.372 33.864C311.052 34.048 310.796 34.308 310.604 34.644C310.412 34.972 310.316 35.364 310.316 35.82C310.316 36.268 310.412 36.664 310.604 37.008C310.796 37.344 311.052 37.604 311.372 37.788C311.692 37.972 312.056 38.064 312.464 38.064Z" fill="#1E3A5F"/>
<path d="M75.77 54L77.31 46.3H80.17C80.94 46.3 81.5927 46.4283 82.128 46.685C82.6633 46.9417 83.0667 47.3047 83.338 47.774C83.6167 48.236 83.756 48.7823 83.756 49.413C83.756 50.0803 83.6423 50.6963 83.415 51.261C83.195 51.8257 82.8723 52.3133 82.447 52.724C82.029 53.1273 81.5267 53.4427 80.94 53.67C80.3533 53.89 79.6933 54 78.96 54H75.77ZM76.43 53.494H78.993C79.851 53.494 80.5917 53.3217 81.215 52.977C81.8457 52.625 82.3297 52.1447 82.667 51.536C83.0117 50.92 83.184 50.2197 83.184 49.435C83.184 48.907 83.0703 48.445 82.843 48.049C82.6157 47.653 82.2747 47.3487 81.82 47.136C81.3653 46.916 80.7933 46.806 80.104 46.806H77.772L76.43 53.494ZM87.2009 54.044C86.6656 54.044 86.1999 53.9487 85.8039 53.758C85.4079 53.56 85.1036 53.2813 84.8909 52.922C84.6856 52.5627 84.5829 52.1337 84.5829 51.635C84.5829 50.9823 84.7186 50.3993 84.9899 49.886C85.2686 49.3727 85.6426 48.9657 86.1119 48.665C86.5886 48.3643 87.1239 48.214 87.7179 48.214C88.2239 48.214 88.6566 48.3093 89.0159 48.5C89.3752 48.6907 89.6539 48.9657 89.8519 49.325C90.0572 49.677 90.1599 50.106 90.1599 50.612C90.1599 50.722 90.1526 50.832 90.1379 50.942C90.1232 51.052 90.1086 51.1547 90.0939 51.25H85.0009L85.0779 50.821H89.8299L89.6099 51.008C89.6906 50.502 89.6576 50.0803 89.5109 49.743C89.3642 49.3983 89.1332 49.138 88.8179 48.962C88.5099 48.7787 88.1396 48.687 87.7069 48.687C87.2082 48.687 86.7609 48.8153 86.3649 49.072C85.9762 49.3213 85.6719 49.666 85.4519 50.106C85.2319 50.5387 85.1219 51.041 85.1219 51.613C85.1219 52.2363 85.3016 52.7167 85.6609 53.054C86.0202 53.384 86.5482 53.549 87.2449 53.549C87.6556 53.549 88.0296 53.483 88.3669 53.351C88.7116 53.2117 88.9939 53.021 89.2139 52.779L89.4669 53.164C89.2176 53.4353 88.8912 53.6517 88.4879 53.813C88.0919 53.967 87.6629 54.044 87.2009 54.044ZM92.8181 54.044C92.3634 54.044 91.9308 53.978 91.5201 53.846C91.1168 53.7067 90.8051 53.5307 90.5851 53.318L90.8821 52.889C91.0948 53.0943 91.3771 53.2593 91.7291 53.384C92.0884 53.5013 92.4661 53.56 92.8621 53.56C93.4561 53.56 93.9144 53.4537 94.2371 53.241C94.5671 53.0283 94.7321 52.7387 94.7321 52.372C94.7321 52.1227 94.6514 51.9357 94.4901 51.811C94.3361 51.6863 94.1308 51.591 93.8741 51.525C93.6248 51.459 93.3571 51.3967 93.0711 51.338C92.7924 51.2793 92.5248 51.206 92.2681 51.118C92.0188 51.03 91.8134 50.8943 91.6521 50.711C91.4981 50.5277 91.4211 50.2747 91.4211 49.952C91.4211 49.6 91.5201 49.2957 91.7181 49.039C91.9161 48.775 92.1948 48.5733 92.5541 48.434C92.9134 48.2873 93.3351 48.214 93.8191 48.214C94.1784 48.214 94.5304 48.2653 94.8751 48.368C95.2271 48.4633 95.5058 48.599 95.7111 48.775L95.4581 49.204C95.2381 49.0353 94.9778 48.9107 94.6771 48.83C94.3838 48.742 94.0831 48.698 93.7751 48.698C93.2104 48.698 92.7668 48.808 92.4441 49.028C92.1214 49.248 91.9601 49.5377 91.9601 49.897C91.9601 50.1463 92.0408 50.337 92.2021 50.469C92.3634 50.601 92.5688 50.7 92.8181 50.766C93.0674 50.832 93.3351 50.8943 93.6211 50.953C93.9071 51.0043 94.1748 51.0777 94.4241 51.173C94.6808 51.261 94.8861 51.393 95.0401 51.569C95.2014 51.745 95.2821 51.9943 95.2821 52.317C95.2821 52.6763 95.1794 52.988 94.9741 53.252C94.7688 53.5087 94.4828 53.7067 94.1161 53.846C93.7494 53.978 93.3168 54.044 92.8181 54.044ZM99.028 54.044C98.4927 54.044 98.027 53.9487 97.631 53.758C97.235 53.56 96.9307 53.2813 96.718 52.922C96.5127 52.5627 96.41 52.1337 96.41 51.635C96.41 50.9823 96.5457 50.3993 96.817 49.886C97.0957 49.3727 97.4697 48.9657 97.939 48.665C98.4157 48.3643 98.951 48.214 99.545 48.214C100.051 48.214 100.484 48.3093 100.843 48.5C101.202 48.6907 101.481 48.9657 101.679 49.325C101.884 49.677 101.987 50.106 101.987 50.612C101.987 50.722 101.98 50.832 101.965 50.942C101.95 51.052 101.936 51.1547 101.921 51.25H96.828L96.905 50.821H101.657L101.437 51.008C101.518 50.502 101.485 50.0803 101.338 49.743C101.191 49.3983 100.96 49.138 100.645 48.962C100.337 48.7787 99.9667 48.687 99.534 48.687C99.0354 48.687 98.588 48.8153 98.192 49.072C97.8034 49.3213 97.499 49.666 97.279 50.106C97.059 50.5387 96.949 51.041 96.949 51.613C96.949 52.2363 97.1287 52.7167 97.488 53.054C97.8474 53.384 98.3754 53.549 99.072 53.549C99.4827 53.549 99.8567 53.483 100.194 53.351C100.539 53.2117 100.821 53.021 101.041 52.779L101.294 53.164C101.045 53.4353 100.718 53.6517 100.315 53.813C99.919 53.967 99.49 54.044 99.028 54.044ZM106.911 48.214C107.432 48.214 107.854 48.3167 108.176 48.522C108.506 48.72 108.73 49.006 108.847 49.38C108.972 49.7467 108.983 50.1793 108.88 50.678L108.22 54H107.67L108.33 50.678C108.455 50.0693 108.385 49.589 108.121 49.237C107.865 48.885 107.414 48.709 106.768 48.709C106.116 48.709 105.569 48.8923 105.129 49.259C104.689 49.6183 104.396 50.1573 104.249 50.876L103.622 54H103.072L104.216 48.258H104.755L104.425 49.919L104.282 49.776C104.554 49.2333 104.917 48.8373 105.371 48.588C105.826 48.3387 106.339 48.214 106.911 48.214ZM111.84 54L110.388 48.258H110.949L112.302 53.692H112.038L115.547 48.258H116.13L112.401 54H111.84ZM118.47 54.044C117.956 54.044 117.509 53.9487 117.128 53.758C116.746 53.56 116.449 53.2813 116.237 52.922C116.031 52.5627 115.929 52.141 115.929 51.657C115.929 50.997 116.068 50.4103 116.347 49.897C116.633 49.3763 117.021 48.9657 117.513 48.665C118.011 48.3643 118.58 48.214 119.218 48.214C119.738 48.214 120.186 48.313 120.56 48.511C120.941 48.7017 121.234 48.9767 121.44 49.336C121.652 49.688 121.759 50.1097 121.759 50.601C121.759 51.261 121.616 51.8513 121.33 52.372C121.051 52.8853 120.662 53.2923 120.164 53.593C119.672 53.8937 119.108 54.044 118.47 54.044ZM118.514 53.549C119.034 53.549 119.496 53.4243 119.9 53.175C120.303 52.9257 120.622 52.581 120.857 52.141C121.091 51.6937 121.209 51.1913 121.209 50.634C121.209 50.018 121.029 49.545 120.67 49.215C120.318 48.8777 119.819 48.709 119.174 48.709C118.66 48.709 118.198 48.8373 117.788 49.094C117.384 49.3433 117.065 49.688 116.831 50.128C116.596 50.568 116.479 51.0667 116.479 51.624C116.479 52.2327 116.655 52.7057 117.007 53.043C117.366 53.3803 117.868 53.549 118.514 53.549ZM122.838 54L124.466 45.838H125.016L123.388 54H122.838ZM127.18 54L125.728 48.258H126.289L127.642 53.692H127.378L130.887 48.258H131.47L127.741 54H127.18ZM131.518 54L132.662 48.258H133.212L132.068 54H131.518ZM133.278 46.861C133.16 46.861 133.061 46.8207 132.981 46.74C132.9 46.6593 132.86 46.564 132.86 46.454C132.86 46.322 132.904 46.2083 132.992 46.113C133.087 46.0177 133.204 45.97 133.344 45.97C133.468 45.97 133.571 46.0103 133.652 46.091C133.732 46.1717 133.773 46.267 133.773 46.377C133.773 46.5163 133.725 46.6337 133.63 46.729C133.534 46.817 133.417 46.861 133.278 46.861ZM142.559 48.214C143.079 48.214 143.497 48.3167 143.813 48.522C144.135 48.72 144.355 49.006 144.473 49.38C144.59 49.7467 144.597 50.1793 144.495 50.678L143.824 54H143.274L143.945 50.678C144.062 50.0693 143.996 49.589 143.747 49.237C143.505 48.885 143.072 48.709 142.449 48.709C141.833 48.709 141.312 48.8813 140.887 49.226C140.461 49.5633 140.179 50.0693 140.04 50.744L139.38 54H138.83L139.501 50.678C139.618 50.0693 139.552 49.589 139.303 49.237C139.061 48.885 138.628 48.709 138.005 48.709C137.374 48.709 136.846 48.8923 136.421 49.259C135.995 49.6257 135.709 50.1647 135.563 50.876L134.936 54H134.386L135.53 48.258H136.069L135.739 49.919L135.596 49.776C135.867 49.2333 136.223 48.8373 136.663 48.588C137.103 48.3387 137.598 48.214 138.148 48.214C138.558 48.214 138.907 48.2837 139.193 48.423C139.486 48.5623 139.71 48.7603 139.864 49.017C140.018 49.2737 140.102 49.5817 140.117 49.941L139.842 49.875C140.12 49.3177 140.494 48.9033 140.964 48.632C141.433 48.3533 141.965 48.214 142.559 48.214ZM148.625 54.044C148.089 54.044 147.624 53.9487 147.228 53.758C146.832 53.56 146.527 53.2813 146.315 52.922C146.109 52.5627 146.007 52.1337 146.007 51.635C146.007 50.9823 146.142 50.3993 146.414 49.886C146.692 49.3727 147.066 48.9657 147.536 48.665C148.012 48.3643 148.548 48.214 149.142 48.214C149.648 48.214 150.08 48.3093 150.44 48.5C150.799 48.6907 151.078 48.9657 151.276 49.325C151.481 49.677 151.584 50.106 151.584 50.612C151.584 50.722 151.576 50.832 151.562 50.942C151.547 51.052 151.532 51.1547 151.518 51.25H146.425L146.502 50.821H151.254L151.034 51.008C151.114 50.502 151.081 50.0803 150.935 49.743C150.788 49.3983 150.557 49.138 150.242 48.962C149.934 48.7787 149.563 48.687 149.131 48.687C148.632 48.687 148.185 48.8153 147.789 49.072C147.4 49.3213 147.096 49.666 146.876 50.106C146.656 50.5387 146.546 51.041 146.546 51.613C146.546 52.2363 146.725 52.7167 147.085 53.054C147.444 53.384 147.972 53.549 148.669 53.549C149.079 53.549 149.453 53.483 149.791 53.351C150.135 53.2117 150.418 53.021 150.638 52.779L150.891 53.164C150.641 53.4353 150.315 53.6517 149.912 53.813C149.516 53.967 149.087 54.044 148.625 54.044ZM156.508 48.214C157.029 48.214 157.45 48.3167 157.773 48.522C158.103 48.72 158.327 49.006 158.444 49.38C158.569 49.7467 158.58 50.1793 158.477 50.678L157.817 54H157.267L157.927 50.678C158.052 50.0693 157.982 49.589 157.718 49.237C157.461 48.885 157.01 48.709 156.365 48.709C155.712 48.709 155.166 48.8923 154.726 49.259C154.286 49.6183 153.993 50.1573 153.846 50.876L153.219 54H152.669L153.813 48.258H154.352L154.022 49.919L153.879 49.776C154.15 49.2333 154.513 48.8373 154.968 48.588C155.423 48.3387 155.936 48.214 156.508 48.214ZM161.775 54.044C161.46 54.044 161.192 53.978 160.972 53.846C160.76 53.714 160.613 53.5233 160.532 53.274C160.452 53.0247 160.444 52.7277 160.51 52.383L161.588 47.004H162.138L161.071 52.339C160.991 52.7423 161.016 53.0503 161.148 53.263C161.288 53.4683 161.541 53.571 161.907 53.571C162.083 53.571 162.248 53.5453 162.402 53.494C162.564 53.4353 162.71 53.3547 162.842 53.252L163.007 53.659C162.831 53.7983 162.633 53.8973 162.413 53.956C162.201 54.0147 161.988 54.044 161.775 54.044ZM160.18 48.731L160.268 48.258H163.711L163.623 48.731H160.18ZM166.702 54.044C166.189 54.044 165.741 53.9487 165.36 53.758C164.979 53.56 164.682 53.2813 164.469 52.922C164.264 52.5627 164.161 52.141 164.161 51.657C164.161 50.997 164.3 50.4103 164.579 49.897C164.865 49.3763 165.254 48.9657 165.745 48.665C166.244 48.3643 166.812 48.214 167.45 48.214C167.971 48.214 168.418 48.313 168.792 48.511C169.173 48.7017 169.467 48.9767 169.672 49.336C169.885 49.688 169.991 50.1097 169.991 50.601C169.991 51.261 169.848 51.8513 169.562 52.372C169.283 52.8853 168.895 53.2923 168.396 53.593C167.905 53.8937 167.34 54.044 166.702 54.044ZM166.746 53.549C167.267 53.549 167.729 53.4243 168.132 53.175C168.535 52.9257 168.854 52.581 169.089 52.141C169.324 51.6937 169.441 51.1913 169.441 50.634C169.441 50.018 169.261 49.545 168.902 49.215C168.55 48.8777 168.051 48.709 167.406 48.709C166.893 48.709 166.431 48.8373 166.02 49.094C165.617 49.3433 165.298 49.688 165.063 50.128C164.828 50.568 164.711 51.0667 164.711 51.624C164.711 52.2327 164.887 52.7057 165.239 53.043C165.598 53.3803 166.101 53.549 166.746 53.549ZM175.788 54L174.71 46.3H175.271L176.294 53.648H176.019L180.045 46.3H180.573L181.64 53.648H181.365L185.347 46.3H185.919L181.772 54H181.178L180.133 46.905L180.287 46.894L176.382 54H175.788ZM187.898 54.044C187.363 54.044 186.897 53.9487 186.501 53.758C186.105 53.56 185.801 53.2813 185.588 52.922C185.383 52.5627 185.28 52.1337 185.28 51.635C185.28 50.9823 185.416 50.3993 185.687 49.886C185.966 49.3727 186.34 48.9657 186.809 48.665C187.286 48.3643 187.821 48.214 188.415 48.214C188.921 48.214 189.354 48.3093 189.713 48.5C190.072 48.6907 190.351 48.9657 190.549 49.325C190.754 49.677 190.857 50.106 190.857 50.612C190.857 50.722 190.85 50.832 190.835 50.942C190.82 51.052 190.806 51.1547 190.791 51.25H185.698L185.775 50.821H190.527L190.307 51.008C190.388 50.502 190.355 50.0803 190.208 49.743C190.061 49.3983 189.83 49.138 189.515 48.962C189.207 48.7787 188.837 48.687 188.404 48.687C187.905 48.687 187.458 48.8153 187.062 49.072C186.673 49.3213 186.369 49.666 186.149 50.106C185.929 50.5387 185.819 51.041 185.819 51.613C185.819 52.2363 185.999 52.7167 186.358 53.054C186.717 53.384 187.245 53.549 187.942 53.549C188.353 53.549 188.727 53.483 189.064 53.351C189.409 53.2117 189.691 53.021 189.911 52.779L190.164 53.164C189.915 53.4353 189.588 53.6517 189.185 53.813C188.789 53.967 188.36 54.044 187.898 54.044ZM191.942 54L193.57 45.838H194.12L193.284 50.062L192.954 51.052L192.866 52.053L192.481 54H191.942ZM195.044 54.044C194.546 54.044 194.117 53.956 193.757 53.78C193.405 53.5967 193.138 53.3363 192.954 52.999C192.771 52.6543 192.676 52.24 192.668 51.756C192.668 51.2427 192.742 50.7697 192.888 50.337C193.035 49.9043 193.248 49.5303 193.526 49.215C193.805 48.8997 194.135 48.654 194.516 48.478C194.905 48.302 195.338 48.214 195.814 48.214C196.313 48.214 196.746 48.3093 197.112 48.5C197.486 48.6907 197.776 48.9657 197.981 49.325C198.194 49.6843 198.3 50.1097 198.3 50.601C198.3 51.0997 198.22 51.558 198.058 51.976C197.897 52.394 197.67 52.757 197.376 53.065C197.09 53.373 196.749 53.615 196.353 53.791C195.957 53.9597 195.521 54.044 195.044 54.044ZM195.055 53.549C195.576 53.549 196.038 53.4243 196.441 53.175C196.845 52.9257 197.16 52.581 197.387 52.141C197.622 51.6937 197.739 51.1913 197.739 50.634C197.739 50.018 197.56 49.545 197.2 49.215C196.848 48.8777 196.35 48.709 195.704 48.709C195.191 48.709 194.729 48.8337 194.318 49.083C193.915 49.3323 193.596 49.677 193.361 50.117C193.127 50.557 193.009 51.0593 193.009 51.624C193.009 52.2327 193.189 52.7057 193.548 53.043C193.908 53.3803 194.41 53.549 195.055 53.549ZM204.687 54.044C204.159 54.044 203.701 53.9487 203.312 53.758C202.924 53.56 202.623 53.2813 202.41 52.922C202.205 52.5627 202.102 52.141 202.102 51.657C202.102 50.9897 202.242 50.3993 202.52 49.886C202.806 49.3653 203.199 48.9583 203.697 48.665C204.196 48.3643 204.764 48.214 205.402 48.214C205.916 48.214 206.356 48.3057 206.722 48.489C207.096 48.665 207.382 48.9327 207.58 49.292L207.129 49.567C206.953 49.2737 206.719 49.0573 206.425 48.918C206.132 48.7787 205.78 48.709 205.369 48.709C204.841 48.709 204.372 48.8373 203.961 49.094C203.558 49.3433 203.239 49.688 203.004 50.128C202.77 50.568 202.652 51.0667 202.652 51.624C202.652 52.2327 202.832 52.7057 203.191 53.043C203.551 53.3803 204.064 53.549 204.731 53.549C205.113 53.549 205.468 53.4793 205.798 53.34C206.136 53.1933 206.414 52.9843 206.634 52.713L207.019 53.021C206.77 53.3437 206.436 53.5967 206.018 53.78C205.608 53.956 205.164 54.044 204.687 54.044ZM210.648 54.044C210.135 54.044 209.688 53.9487 209.306 53.758C208.925 53.56 208.628 53.2813 208.415 52.922C208.21 52.5627 208.107 52.141 208.107 51.657C208.107 50.997 208.247 50.4103 208.525 49.897C208.811 49.3763 209.2 48.9657 209.691 48.665C210.19 48.3643 210.758 48.214 211.396 48.214C211.917 48.214 212.364 48.313 212.738 48.511C213.12 48.7017 213.413 48.9767 213.618 49.336C213.831 49.688 213.937 50.1097 213.937 50.601C213.937 51.261 213.794 51.8513 213.508 52.372C213.23 52.8853 212.841 53.2923 212.342 53.593C211.851 53.8937 211.286 54.044 210.648 54.044ZM210.692 53.549C211.213 53.549 211.675 53.4243 212.078 53.175C212.482 52.9257 212.801 52.581 213.035 52.141C213.27 51.6937 213.387 51.1913 213.387 50.634C213.387 50.018 213.208 49.545 212.848 49.215C212.496 48.8777 211.998 48.709 211.352 48.709C210.839 48.709 210.377 48.8373 209.966 49.094C209.563 49.3433 209.244 49.688 209.009 50.128C208.775 50.568 208.657 51.0667 208.657 51.624C208.657 52.2327 208.833 52.7057 209.185 53.043C209.545 53.3803 210.047 53.549 210.692 53.549ZM223.19 48.214C223.71 48.214 224.128 48.3167 224.444 48.522C224.766 48.72 224.986 49.006 225.104 49.38C225.221 49.7467 225.228 50.1793 225.126 50.678L224.455 54H223.905L224.576 50.678C224.693 50.0693 224.627 49.589 224.378 49.237C224.136 48.885 223.703 48.709 223.08 48.709C222.464 48.709 221.943 48.8813 221.518 49.226C221.092 49.5633 220.81 50.0693 220.671 50.744L220.011 54H219.461L220.132 50.678C220.249 50.0693 220.183 49.589 219.934 49.237C219.692 48.885 219.259 48.709 218.636 48.709C218.005 48.709 217.477 48.8923 217.052 49.259C216.626 49.6257 216.34 50.1647 216.194 50.876L215.567 54H215.017L216.161 48.258H216.7L216.37 49.919L216.227 49.776C216.498 49.2333 216.854 48.8373 217.294 48.588C217.734 48.3387 218.229 48.214 218.779 48.214C219.189 48.214 219.538 48.2837 219.824 48.423C220.117 48.5623 220.341 48.7603 220.495 49.017C220.649 49.2737 220.733 49.5817 220.748 49.941L220.473 49.875C220.751 49.3177 221.125 48.9033 221.595 48.632C222.064 48.3533 222.596 48.214 223.19 48.214ZM232.081 54.044C231.545 54.044 231.08 53.9487 230.684 53.758C230.288 53.56 229.983 53.2813 229.771 52.922C229.565 52.5627 229.463 52.1337 229.463 51.635C229.463 50.9823 229.598 50.3993 229.87 49.886C230.148 49.3727 230.522 48.9657 230.992 48.665C231.468 48.3643 232.004 48.214 232.598 48.214C233.104 48.214 233.536 48.3093 233.896 48.5C234.255 48.6907 234.534 48.9657 234.732 49.325C234.937 49.677 235.04 50.106 235.04 50.612C235.04 50.722 235.032 50.832 235.018 50.942C235.003 51.052 234.988 51.1547 234.974 51.25H229.881L229.958 50.821H234.71L234.49 51.008C234.57 50.502 234.537 50.0803 234.391 49.743C234.244 49.3983 234.013 49.138 233.698 48.962C233.39 48.7787 233.019 48.687 232.587 48.687C232.088 48.687 231.641 48.8153 231.245 49.072C230.856 49.3213 230.552 49.666 230.332 50.106C230.112 50.5387 230.002 51.041 230.002 51.613C230.002 52.2363 230.181 52.7167 230.541 53.054C230.9 53.384 231.428 53.549 232.125 53.549C232.535 53.549 232.909 53.483 233.247 53.351C233.591 53.2117 233.874 53.021 234.094 52.779L234.347 53.164C234.097 53.4353 233.771 53.6517 233.368 53.813C232.972 53.967 232.543 54.044 232.081 54.044ZM235.051 54L238.076 50.898L238.021 51.151L236.338 48.258H236.921L238.406 50.821L238.164 50.81L240.628 48.258H241.277L238.406 51.217L238.45 50.909L240.254 54H239.66L238.098 51.283L238.329 51.294L235.711 54H235.051ZM243.961 54.044C243.433 54.044 242.975 53.9487 242.586 53.758C242.197 53.56 241.897 53.2813 241.684 52.922C241.479 52.5627 241.376 52.141 241.376 51.657C241.376 50.9897 241.515 50.3993 241.794 49.886C242.08 49.3653 242.472 48.9583 242.971 48.665C243.47 48.3643 244.038 48.214 244.676 48.214C245.189 48.214 245.629 48.3057 245.996 48.489C246.37 48.665 246.656 48.9327 246.854 49.292L246.403 49.567C246.227 49.2737 245.992 49.0573 245.699 48.918C245.406 48.7787 245.054 48.709 244.643 48.709C244.115 48.709 243.646 48.8373 243.235 49.094C242.832 49.3433 242.513 49.688 242.278 50.128C242.043 50.568 241.926 51.0667 241.926 51.624C241.926 52.2327 242.106 52.7057 242.465 53.043C242.824 53.3803 243.338 53.549 244.005 53.549C244.386 53.549 244.742 53.4793 245.072 53.34C245.409 53.1933 245.688 52.9843 245.908 52.713L246.293 53.021C246.044 53.3437 245.71 53.5967 245.292 53.78C244.881 53.956 244.438 54.044 243.961 54.044ZM249.999 54.044C249.463 54.044 248.998 53.9487 248.602 53.758C248.206 53.56 247.901 53.2813 247.689 52.922C247.483 52.5627 247.381 52.1337 247.381 51.635C247.381 50.9823 247.516 50.3993 247.788 49.886C248.066 49.3727 248.44 48.9657 248.91 48.665C249.386 48.3643 249.922 48.214 250.516 48.214C251.022 48.214 251.454 48.3093 251.814 48.5C252.173 48.6907 252.452 48.9657 252.65 49.325C252.855 49.677 252.958 50.106 252.958 50.612C252.958 50.722 252.95 50.832 252.936 50.942C252.921 51.052 252.906 51.1547 252.892 51.25H247.799L247.876 50.821H252.628L252.408 51.008C252.488 50.502 252.455 50.0803 252.309 49.743C252.162 49.3983 251.931 49.138 251.616 48.962C251.308 48.7787 250.937 48.687 250.505 48.687C250.006 48.687 249.559 48.8153 249.163 49.072C248.774 49.3213 248.47 49.666 248.25 50.106C248.03 50.5387 247.92 51.041 247.92 51.613C247.92 52.2363 248.099 52.7167 248.459 53.054C248.818 53.384 249.346 53.549 250.043 53.549C250.453 53.549 250.827 53.483 251.165 53.351C251.509 53.2117 251.792 53.021 252.012 52.779L252.265 53.164C252.015 53.4353 251.689 53.6517 251.286 53.813C250.89 53.967 250.461 54.044 249.999 54.044ZM254.043 54L255.671 45.838H256.221L254.593 54H254.043ZM259.441 54.044C258.906 54.044 258.44 53.9487 258.044 53.758C257.648 53.56 257.344 53.2813 257.131 52.922C256.926 52.5627 256.823 52.1337 256.823 51.635C256.823 50.9823 256.959 50.3993 257.23 49.886C257.509 49.3727 257.883 48.9657 258.352 48.665C258.829 48.3643 259.364 48.214 259.958 48.214C260.464 48.214 260.897 48.3093 261.256 48.5C261.615 48.6907 261.894 48.9657 262.092 49.325C262.297 49.677 262.4 50.106 262.4 50.612C262.4 50.722 262.393 50.832 262.378 50.942C262.363 51.052 262.349 51.1547 262.334 51.25H257.241L257.318 50.821H262.07L261.85 51.008C261.931 50.502 261.898 50.0803 261.751 49.743C261.604 49.3983 261.373 49.138 261.058 48.962C260.75 48.7787 260.38 48.687 259.947 48.687C259.448 48.687 259.001 48.8153 258.605 49.072C258.216 49.3213 257.912 49.666 257.692 50.106C257.472 50.5387 257.362 51.041 257.362 51.613C257.362 52.2363 257.542 52.7167 257.901 53.054C258.26 53.384 258.788 53.549 259.485 53.549C259.896 53.549 260.27 53.483 260.607 53.351C260.952 53.2117 261.234 53.021 261.454 52.779L261.707 53.164C261.458 53.4353 261.131 53.6517 260.728 53.813C260.332 53.967 259.903 54.044 259.441 54.044ZM258.616 47.323L260.156 46.025H260.761L262.004 47.323H261.476L260.255 46.201H260.64L259.188 47.323H258.616ZM267.324 48.214C267.845 48.214 268.267 48.3167 268.589 48.522C268.919 48.72 269.143 49.006 269.26 49.38C269.385 49.7467 269.396 50.1793 269.293 50.678L268.633 54H268.083L268.743 50.678C268.868 50.0693 268.798 49.589 268.534 49.237C268.278 48.885 267.827 48.709 267.181 48.709C266.529 48.709 265.982 48.8923 265.542 49.259C265.102 49.6183 264.809 50.1573 264.662 50.876L264.035 54H263.485L264.629 48.258H265.168L264.838 49.919L264.695 49.776C264.967 49.2333 265.33 48.8373 265.784 48.588C266.239 48.3387 266.752 48.214 267.324 48.214ZM273.384 54.044C272.856 54.044 272.397 53.9487 272.009 53.758C271.62 53.56 271.319 53.2813 271.107 52.922C270.901 52.5627 270.799 52.141 270.799 51.657C270.799 50.9897 270.938 50.3993 271.217 49.886C271.503 49.3653 271.895 48.9583 272.394 48.665C272.892 48.3643 273.461 48.214 274.099 48.214C274.612 48.214 275.052 48.3057 275.419 48.489C275.793 48.665 276.079 48.9327 276.277 49.292L275.826 49.567C275.65 49.2737 275.415 49.0573 275.122 48.918C274.828 48.7787 274.476 48.709 274.066 48.709C273.538 48.709 273.068 48.8373 272.658 49.094C272.254 49.3433 271.935 49.688 271.701 50.128C271.466 50.568 271.349 51.0667 271.349 51.624C271.349 52.2327 271.528 52.7057 271.888 53.043C272.247 53.3803 272.76 53.549 273.428 53.549C273.809 53.549 274.165 53.4793 274.495 53.34C274.832 53.1933 275.111 52.9843 275.331 52.713L275.716 53.021C275.466 53.3437 275.133 53.5967 274.715 53.78C274.304 53.956 273.86 54.044 273.384 54.044ZM276.892 54L278.036 48.258H278.586L277.442 54H276.892ZM278.652 46.861C278.534 46.861 278.435 46.8207 278.355 46.74C278.274 46.6593 278.234 46.564 278.234 46.454C278.234 46.322 278.278 46.2083 278.366 46.113C278.461 46.0177 278.578 45.97 278.718 45.97C278.842 45.97 278.945 46.0103 279.026 46.091C279.106 46.1717 279.147 46.267 279.147 46.377C279.147 46.5163 279.099 46.6337 279.004 46.729C278.908 46.817 278.791 46.861 278.652 46.861ZM282.147 54.044C281.655 54.044 281.223 53.9487 280.849 53.758C280.475 53.5673 280.185 53.2923 279.98 52.933C279.774 52.5737 279.672 52.1483 279.672 51.657C279.672 51.1583 279.749 50.7 279.903 50.282C280.064 49.864 280.291 49.501 280.585 49.193C280.878 48.885 281.223 48.6467 281.619 48.478C282.015 48.302 282.447 48.214 282.917 48.214C283.423 48.214 283.852 48.3057 284.204 48.489C284.556 48.665 284.823 48.9253 285.007 49.27C285.197 49.6073 285.293 50.018 285.293 50.502C285.3 51.184 285.172 51.7927 284.908 52.328C284.651 52.8633 284.284 53.285 283.808 53.593C283.338 53.8937 282.785 54.044 282.147 54.044ZM282.257 53.549C282.777 53.549 283.239 53.4243 283.643 53.175C284.046 52.9257 284.365 52.581 284.6 52.141C284.834 51.6937 284.952 51.1913 284.952 50.634C284.952 50.018 284.772 49.545 284.413 49.215C284.061 48.8777 283.562 48.709 282.917 48.709C282.403 48.709 281.941 48.8373 281.531 49.094C281.127 49.3433 280.808 49.688 280.574 50.128C280.339 50.568 280.222 51.0667 280.222 51.624C280.222 52.2327 280.398 52.7057 280.75 53.043C281.109 53.3803 281.611 53.549 282.257 53.549ZM284.347 54L284.699 52.207L285.018 51.206L285.095 50.15L285.469 48.258H286.019L284.875 54H284.347ZM292.538 54.044C292.002 54.044 291.537 53.9487 291.141 53.758C290.745 53.56 290.44 53.2813 290.228 52.922C290.022 52.5627 289.92 52.1337 289.92 51.635C289.92 50.9823 290.055 50.3993 290.327 49.886C290.605 49.3727 290.979 48.9657 291.449 48.665C291.925 48.3643 292.461 48.214 293.055 48.214C293.561 48.214 293.993 48.3093 294.353 48.5C294.712 48.6907 294.991 48.9657 295.189 49.325C295.394 49.677 295.497 50.106 295.497 50.612C295.497 50.722 295.489 50.832 295.475 50.942C295.46 51.052 295.445 51.1547 295.431 51.25H290.338L290.415 50.821H295.167L294.947 51.008C295.027 50.502 294.994 50.0803 294.848 49.743C294.701 49.3983 294.47 49.138 294.155 48.962C293.847 48.7787 293.476 48.687 293.044 48.687C292.545 48.687 292.098 48.8153 291.702 49.072C291.313 49.3213 291.009 49.666 290.789 50.106C290.569 50.5387 290.459 51.041 290.459 51.613C290.459 52.2363 290.638 52.7167 290.998 53.054C291.357 53.384 291.885 53.549 292.582 53.549C292.992 53.549 293.366 53.483 293.704 53.351C294.048 53.2117 294.331 53.021 294.551 52.779L294.804 53.164C294.554 53.4353 294.228 53.6517 293.825 53.813C293.429 53.967 293 54.044 292.538 54.044ZM302.509 54.044C302.011 54.044 301.582 53.956 301.222 53.78C300.87 53.5967 300.603 53.3363 300.419 52.999C300.236 52.6543 300.141 52.24 300.133 51.756C300.133 51.0667 300.262 50.458 300.518 49.93C300.782 49.3947 301.149 48.9767 301.618 48.676C302.095 48.368 302.649 48.214 303.279 48.214C303.778 48.214 304.211 48.3093 304.577 48.5C304.951 48.6907 305.241 48.9657 305.446 49.325C305.659 49.6843 305.765 50.1097 305.765 50.601C305.765 51.0997 305.685 51.558 305.523 51.976C305.362 52.394 305.135 52.757 304.841 53.065C304.555 53.373 304.214 53.615 303.818 53.791C303.422 53.9597 302.986 54.044 302.509 54.044ZM298.978 56.134L300.551 48.258H301.09L300.727 50.051L300.419 51.052L300.342 52.108L299.528 56.134H298.978ZM302.52 53.549C303.041 53.549 303.503 53.4243 303.906 53.175C304.31 52.9257 304.625 52.581 304.852 52.141C305.087 51.6937 305.204 51.1913 305.204 50.634C305.204 50.018 305.025 49.545 304.665 49.215C304.313 48.8777 303.815 48.709 303.169 48.709C302.656 48.709 302.194 48.8337 301.783 49.083C301.38 49.3323 301.061 49.677 300.826 50.117C300.592 50.557 300.474 51.0593 300.474 51.624C300.474 52.2327 300.654 52.7057 301.013 53.043C301.373 53.3803 301.875 53.549 302.52 53.549ZM306.83 54L307.974 48.258H308.513L308.161 49.985L308.095 49.787C308.344 49.2663 308.682 48.874 309.107 48.61C309.532 48.346 310.068 48.214 310.713 48.214L310.614 48.753C310.585 48.753 310.555 48.753 310.526 48.753C310.497 48.7457 310.467 48.742 310.438 48.742C309.793 48.742 309.257 48.9363 308.832 49.325C308.414 49.7063 308.128 50.282 307.974 51.052L307.38 54H306.83ZM313.539 54.044C313.003 54.044 312.538 53.9487 312.142 53.758C311.746 53.56 311.441 53.2813 311.229 52.922C311.023 52.5627 310.921 52.1337 310.921 51.635C310.921 50.9823 311.056 50.3993 311.328 49.886C311.606 49.3727 311.98 48.9657 312.45 48.665C312.926 48.3643 313.462 48.214 314.056 48.214C314.562 48.214 314.994 48.3093 315.354 48.5C315.713 48.6907 315.992 48.9657 316.19 49.325C316.395 49.677 316.498 50.106 316.498 50.612C316.498 50.722 316.49 50.832 316.476 50.942C316.461 51.052 316.446 51.1547 316.432 51.25H311.339L311.416 50.821H316.168L315.948 51.008C316.028 50.502 315.995 50.0803 315.849 49.743C315.702 49.3983 315.471 49.138 315.156 48.962C314.848 48.7787 314.477 48.687 314.045 48.687C313.546 48.687 313.099 48.8153 312.703 49.072C312.314 49.3213 312.01 49.666 311.79 50.106C311.57 50.5387 311.46 51.041 311.46 51.613C311.46 52.2363 311.639 52.7167 311.999 53.054C312.358 53.384 312.886 53.549 313.583 53.549C313.993 53.549 314.367 53.483 314.705 53.351C315.049 53.2117 315.332 53.021 315.552 52.779L315.805 53.164C315.555 53.4353 315.229 53.6517 314.826 53.813C314.43 53.967 314.001 54.044 313.539 54.044ZM320.08 54.044C319.552 54.044 319.094 53.9487 318.705 53.758C318.316 53.56 318.016 53.2813 317.803 52.922C317.598 52.5627 317.495 52.141 317.495 51.657C317.495 50.9897 317.634 50.3993 317.913 49.886C318.199 49.3653 318.591 48.9583 319.09 48.665C319.589 48.3643 320.157 48.214 320.795 48.214C321.308 48.214 321.748 48.3057 322.115 48.489C322.489 48.665 322.775 48.9327 322.973 49.292L322.522 49.567C322.346 49.2737 322.111 49.0573 321.818 48.918C321.525 48.7787 321.173 48.709 320.762 48.709C320.234 48.709 319.765 48.8373 319.354 49.094C318.951 49.3433 318.632 49.688 318.397 50.128C318.162 50.568 318.045 51.0667 318.045 51.624C318.045 52.2327 318.225 52.7057 318.584 53.043C318.943 53.3803 319.457 53.549 320.124 53.549C320.505 53.549 320.861 53.4793 321.191 53.34C321.528 53.1933 321.807 52.9843 322.027 52.713L322.412 53.021C322.163 53.3437 321.829 53.5967 321.411 53.78C321 53.956 320.557 54.044 320.08 54.044ZM323.588 54L324.732 48.258H325.282L324.138 54H323.588ZM325.348 46.861C325.231 46.861 325.132 46.8207 325.051 46.74C324.97 46.6593 324.93 46.564 324.93 46.454C324.93 46.322 324.974 46.2083 325.062 46.113C325.157 46.0177 325.275 45.97 325.414 45.97C325.539 45.97 325.641 46.0103 325.722 46.091C325.803 46.1717 325.843 46.267 325.843 46.377C325.843 46.5163 325.795 46.6337 325.7 46.729C325.605 46.817 325.487 46.861 325.348 46.861ZM328.029 54.044C327.574 54.044 327.142 53.978 326.731 53.846C326.328 53.7067 326.016 53.5307 325.796 53.318L326.093 52.889C326.306 53.0943 326.588 53.2593 326.94 53.384C327.299 53.5013 327.677 53.56 328.073 53.56C328.667 53.56 329.125 53.4537 329.448 53.241C329.778 53.0283 329.943 52.7387 329.943 52.372C329.943 52.1227 329.862 51.9357 329.701 51.811C329.547 51.6863 329.342 51.591 329.085 51.525C328.836 51.459 328.568 51.3967 328.282 51.338C328.003 51.2793 327.736 51.206 327.479 51.118C327.23 51.03 327.024 50.8943 326.863 50.711C326.709 50.5277 326.632 50.2747 326.632 49.952C326.632 49.6 326.731 49.2957 326.929 49.039C327.127 48.775 327.406 48.5733 327.765 48.434C328.124 48.2873 328.546 48.214 329.03 48.214C329.389 48.214 329.741 48.2653 330.086 48.368C330.438 48.4633 330.717 48.599 330.922 48.775L330.669 49.204C330.449 49.0353 330.189 48.9107 329.888 48.83C329.595 48.742 329.294 48.698 328.986 48.698C328.421 48.698 327.978 48.808 327.655 49.028C327.332 49.248 327.171 49.5377 327.171 49.897C327.171 50.1463 327.252 50.337 327.413 50.469C327.574 50.601 327.78 50.7 328.029 50.766C328.278 50.832 328.546 50.8943 328.832 50.953C329.118 51.0043 329.386 51.0777 329.635 51.173C329.892 51.261 330.097 51.393 330.251 51.569C330.412 51.745 330.493 51.9943 330.493 52.317C330.493 52.6763 330.39 52.988 330.185 53.252C329.98 53.5087 329.694 53.7067 329.327 53.846C328.96 53.978 328.528 54.044 328.029 54.044ZM334.096 54.044C333.605 54.044 333.172 53.9487 332.798 53.758C332.424 53.5673 332.134 53.2923 331.929 52.933C331.724 52.5737 331.621 52.1483 331.621 51.657C331.621 51.1583 331.698 50.7 331.852 50.282C332.013 49.864 332.241 49.501 332.534 49.193C332.827 48.885 333.172 48.6467 333.568 48.478C333.964 48.302 334.397 48.214 334.866 48.214C335.372 48.214 335.801 48.3057 336.153 48.489C336.505 48.665 336.773 48.9253 336.956 49.27C337.147 49.6073 337.242 50.018 337.242 50.502C337.249 51.184 337.121 51.7927 336.857 52.328C336.6 52.8633 336.234 53.285 335.757 53.593C335.288 53.8937 334.734 54.044 334.096 54.044ZM334.206 53.549C334.727 53.549 335.189 53.4243 335.592 53.175C335.995 52.9257 336.314 52.581 336.549 52.141C336.784 51.6937 336.901 51.1913 336.901 50.634C336.901 50.018 336.721 49.545 336.362 49.215C336.01 48.8777 335.511 48.709 334.866 48.709C334.353 48.709 333.891 48.8373 333.48 49.094C333.077 49.3433 332.758 49.688 332.523 50.128C332.288 50.568 332.171 51.0667 332.171 51.624C332.171 52.2327 332.347 52.7057 332.699 53.043C333.058 53.3803 333.561 53.549 334.206 53.549ZM336.296 54L336.648 52.207L336.967 51.206L337.044 50.15L337.418 48.258H337.968L336.824 54H336.296ZM336.285 47.235C336.116 47.235 335.97 47.1983 335.845 47.125C335.728 47.0443 335.618 46.9563 335.515 46.861C335.412 46.7583 335.31 46.6703 335.207 46.597C335.104 46.5163 334.991 46.476 334.866 46.476C334.697 46.476 334.558 46.542 334.448 46.674C334.338 46.806 334.265 46.9783 334.228 47.191H333.865C333.909 46.8537 334.023 46.586 334.206 46.388C334.389 46.19 334.613 46.091 334.877 46.091C335.046 46.091 335.189 46.1313 335.306 46.212C335.431 46.2853 335.541 46.3733 335.636 46.476C335.739 46.5713 335.841 46.6593 335.944 46.74C336.047 46.8133 336.16 46.85 336.285 46.85C336.454 46.85 336.597 46.784 336.714 46.652C336.831 46.52 336.905 46.355 336.934 46.157H337.297C337.246 46.4797 337.128 46.74 336.945 46.938C336.769 47.136 336.549 47.235 336.285 47.235ZM341.585 54.044C341.071 54.044 340.624 53.9487 340.243 53.758C339.861 53.56 339.564 53.2813 339.352 52.922C339.146 52.5627 339.044 52.141 339.044 51.657C339.044 50.997 339.183 50.4103 339.462 49.897C339.748 49.3763 340.136 48.9657 340.628 48.665C341.126 48.3643 341.695 48.214 342.333 48.214C342.853 48.214 343.301 48.313 343.675 48.511C344.056 48.7017 344.349 48.9767 344.555 49.336C344.767 49.688 344.874 50.1097 344.874 50.601C344.874 51.261 344.731 51.8513 344.445 52.372C344.166 52.8853 343.777 53.2923 343.279 53.593C342.787 53.8937 342.223 54.044 341.585 54.044ZM341.629 53.549C342.149 53.549 342.611 53.4243 343.015 53.175C343.418 52.9257 343.737 52.581 343.972 52.141C344.206 51.6937 344.324 51.1913 344.324 50.634C344.324 50.018 344.144 49.545 343.785 49.215C343.433 48.8777 342.934 48.709 342.289 48.709C341.775 48.709 341.313 48.8373 340.903 49.094C340.499 49.3433 340.18 49.688 339.946 50.128C339.711 50.568 339.594 51.0667 339.594 51.624C339.594 52.2327 339.77 52.7057 340.122 53.043C340.481 53.3803 340.983 53.549 341.629 53.549Z" fill="#1E3A5F"/>
</svg>
