<svg width="84" height="84" viewBox="0 0 84 84" fill="none" xmlns="http://www.w3.org/2000/svg">
<path d="M5.18994 21.9188C2.39201 20.3779 1.37296 16.8606 2.91383 14.0627V14.0627C4.45471 11.2648 7.97201 10.2457 10.7699 11.7866L26.9064 20.6733C29.7043 22.2141 30.7234 25.7314 29.1825 28.5294V28.5294C27.6416 31.3273 24.1243 32.3463 21.3264 30.8055L5.18994 21.9188Z" fill="#F7841F"/>
<path d="M56.3473 63.6889C53.5494 62.1481 52.5303 58.6308 54.0712 55.8328V55.8328C55.6121 53.0349 59.1294 52.0158 61.9273 53.5567L78.0638 62.4434C80.8617 63.9843 81.8808 67.5016 80.3399 70.2995V70.2995C78.799 73.0974 75.2817 74.1165 72.4838 72.5756L56.3473 63.6889Z" fill="#2E9B4A"/>
<path d="M69.7029 8.35398C69.7029 5.15981 72.2923 2.57043 75.4864 2.57043V2.57043C78.6806 2.57043 81.27 5.15982 81.27 8.35399V67.4748C81.27 70.6689 78.6806 73.2583 75.4864 73.2583V73.2583C72.2923 73.2583 69.7029 70.6689 69.7029 67.4748V8.35398Z" fill="#54BA5C"/>
<path d="M31.6623 43.4806C29.2254 45.1566 25.8913 44.5398 24.2153 42.1029V42.1029C22.5394 39.6661 23.1562 36.332 25.593 34.656L71.5701 3.03464C74.007 1.35866 77.3411 1.97546 79.0171 4.41232V4.41232C80.6931 6.84918 80.0763 10.1833 77.6394 11.8593L31.6623 43.4806Z" fill="#2FA993"/>
<path d="M12.5776 76.5304C12.561 79.488 10.15 81.872 7.19252 81.8555V81.8555C4.235 81.8389 1.85091 79.4279 1.8675 76.4704L2.20395 16.4937C2.22054 13.5362 4.63153 11.1521 7.58905 11.1687V11.1687C10.5466 11.1853 12.9307 13.5963 12.9141 16.5538L12.5776 76.5304Z" fill="#F9961F"/>
<path d="M10.4318 81.0031C7.98074 82.6583 4.65201 82.013 2.99688 79.562V79.562C1.34175 77.1109 1.98698 73.7822 4.43805 72.127L51.3038 40.48C53.7549 38.8249 57.0836 39.4701 58.7388 41.9212V41.9212C60.3939 44.3723 59.7487 47.701 57.2976 49.3561L10.4318 81.0031Z" fill="#DD272E"/>
<path d="M35.7723 39.4138C35.7723 41.3417 33.6303 42.1679 30.203 44.1264C26.7757 46.0848 23.3484 42.3241 23.3484 39.4138C23.3484 36.5036 25.4934 33.8445 28.4036 33.8445C31.3139 33.8445 35.7723 37.486 35.7723 39.4138Z" fill="#1E9582"/>
</svg>
